<?xml version="1.0" encoding="utf-8"?>
<!-- Generator: Adobe Illustrator 23.0.3, SVG Export Plug-In . SVG Version: 6.00 Build 0)  -->
<svg version="1.1" id="Livello_1" xmlns="http://www.w3.org/2000/svg" xmlns:xlink="http://www.w3.org/1999/xlink" x="0px" y="0px"
	 viewBox="0 0 506 122" style="enable-background:new 0 0 506 122;" xml:space="preserve">
<style type="text/css">
	.st0{fill:#044885;}
	.st1{fill:#004587;}
</style>
<g>
	<path class="st0" d="M388.8,16.6c-0.1-0.1-0.2-0.3-0.3-0.3c0.4-0.3,0.6-0.6,0.6-1.2c0-0.3-0.1-0.5-0.2-0.8
		c-0.1-0.2-0.3-0.4-0.6-0.5c-0.2-0.1-0.5-0.2-0.8-0.2h-2.4v5h0.6l0-2.1l1.8,0c0.3,0,0.5,0.1,0.6,0.2c0.1,0.1,0.2,0.3,0.2,0.5
		c0,0.1,0,0.4,0,0.8c0.1,0.3,0.1,0.6,0.1,0.7h0.8v-0.1c-0.1,0-0.2-0.1-0.2-0.3c0-0.1,0-0.3,0-0.6c0-0.3,0-0.5,0-0.7
		C389,16.9,388.9,16.7,388.8,16.6 M388.4,15.2c0,0.1-0.1,0.3-0.2,0.4c0,0.1-0.2,0.2-0.3,0.3c-0.1,0-0.3,0.1-0.5,0.1l-1.8,0v-1.7h1.9
		c0.3,0,0.5,0.1,0.7,0.3C388.3,14.7,388.4,14.9,388.4,15.2"/>
	<path class="st0" d="M391.4,16c0-2.4-1.9-4.3-4.3-4.3c-2.3,0-4.3,1.9-4.3,4.3c0,2.4,1.9,4.3,4.3,4.3
		C389.5,20.4,391.4,18.4,391.4,16 M390.7,16.1c0,2-1.6,3.6-3.6,3.6c-2,0-3.6-1.6-3.6-3.6c0-2,1.6-3.6,3.6-3.6
		C389,12.5,390.7,14.1,390.7,16.1"/>
	<polygon class="st1" points="428.8,40.6 428.8,31.5 419.6,26.1 423.4,19.6 430.8,19.5 430.9,50.6 426.1,53.4 438.9,60.7 
		438.8,11.6 418.8,11.6 408.8,29 	"/>
	<polygon class="st1" points="453.8,34.7 461.7,30.2 461.7,19.5 469.3,19.5 473.1,26 446.3,41.5 441.4,38.8 441.4,47.9 446.3,50.6 
		483.9,28.8 473.8,11.5 453.8,11.6 	"/>
	<polygon class="st1" points="471.3,53.5 479.2,58.1 488.4,52.7 492.2,59.3 488.5,65.8 461.6,50.3 461.6,44.8 453.9,49.2 453.9,55 
		491.4,76.6 501.4,59.2 491.3,41.9 	"/>
	<polygon class="st1" points="463.9,77.7 464,86.8 473.2,92.1 469.4,98.7 462,98.7 461.9,67.7 466.6,65 453.9,57.6 454,106.6 
		474,106.6 484,89.3 	"/>
	<polygon class="st1" points="439,83.5 431.1,88.1 431.1,98.8 423.5,98.8 419.8,92.4 446.6,76.8 451.4,79.5 451.4,64.8 409,89.5 
		419,106.7 439,106.7 	"/>
	<polygon class="st1" points="421.6,65 413.7,60.5 404.5,65.8 400.7,59.3 404.4,52.8 431.3,68.3 431.3,73.8 438.9,69.4 438.9,63.4 
		401.5,42 391.5,59.4 401.6,76.7 	"/>
	<path class="st1" d="M4.6,62c0.1,21.1,8.5,48.8,38.2,48.8c29.8-0.1,36.7-22.2,36.7-38l-22,0.1c-0.3,15.8-7,19-14.7,19
		c-7.7,0-15.4-6.6-15.8-29.9c0.3-25.6,6.2-31,15.7-31.7c9.5-0.7,14.1,6.6,14.8,22.1l22-0.1c-0.8-20.4-8.9-41.1-36.9-41
		C14.6,11.4,4.6,36,4.6,62"/>
	<path class="st1" d="M334.4,106.9l-53-94.9L261,12.1l0.2,95l20.4-0.1l0-17.3l19.6-0.1L311,107L334.4,106.9z M291.7,69.8l-10.1,0
		l0-17.3L291.7,69.8z"/>
	<polygon class="st1" points="333,93.2 312.1,55.4 312,12 332.9,11.9 360.9,62.8 360.8,11.9 380.7,11.8 380.9,106.8 361,106.9 
		333,55 	"/>
	<path class="st1" d="M256.2,33.1l-0.1-21l-51.6,0.1l0,21l15.2,0l0.1,30c-4.3-12.2-39-13.2-38.4-23.8c0,0-0.4-6.1,7.4-6.1l10.1,0
		l-0.1-20.9l-12.2,0c-20.8,0.1-28.1,16.1-28,27.1c0.1,6.5,1.8,11.8,6,17.3c4.3,5.5,12.2,8.5,16.3,9.6c15.9,4.2,21,7.7,20.8,14.2
		c-0.3,14.5-24,12.1-24.5-1.9l-20.4,0c1.8-5.7,1.8-16.9,1.8-16.9h-0.1c0.3-20.4-6.7-50.6-37.5-50.6C90.2,11.3,83.7,39.1,83.7,62
		c-0.3,27,14.6,48.5,38.3,48.1c23.6-0.3,30.6-18.9,33.8-28.2c9,35.8,47.8,33.7,64.1,14.6l0,10.7l20.7-0.1l-0.2-74.1L256.2,33.1z
		 M136.2,61.8c-0.3,19-2.8,29.5-15,29.9c-12.9,0-15.1-16.5-15.1-29.9c0-20.3,3-32,15-31.7C133,30.5,136.5,42.8,136.2,61.8"/>
	<path class="st0" d="M498.6,16.3c-0.1-0.2-0.2-0.2-0.4-0.3c0.4-0.3,0.7-0.6,0.7-1.2c0-0.3-0.1-0.5-0.2-0.7
		c-0.2-0.2-0.3-0.4-0.6-0.5c-0.3-0.1-0.5-0.2-0.8-0.2l-2.4,0l0,5h0.6l0-2.1l1.8,0c0.3,0,0.5,0.1,0.6,0.2c0.1,0.1,0.2,0.3,0.2,0.5
		c0.1,0.1,0.1,0.4,0.1,0.8c0.1,0.3,0.1,0.6,0.1,0.7h0.8v-0.1c-0.1,0-0.2-0.1-0.2-0.2c0-0.1-0.1-0.3-0.1-0.6c0-0.3,0-0.5,0-0.7
		C498.8,16.6,498.7,16.5,498.6,16.3 M498.2,14.9c0,0.1-0.1,0.2-0.1,0.4c-0.1,0.1-0.2,0.2-0.3,0.3c-0.2,0-0.3,0.1-0.5,0.1h-1.8l0-1.7
		h1.9c0.3,0,0.5,0.1,0.7,0.3C498.2,14.4,498.2,14.7,498.2,14.9"/>
	<path class="st0" d="M501.2,15.8c0-2.4-1.9-4.3-4.4-4.3c-2.3,0-4.3,1.9-4.3,4.3c0,2.4,2,4.4,4.3,4.4
		C499.3,20.1,501.2,18.1,501.2,15.8 M500.5,15.8c0,2-1.6,3.6-3.6,3.6c-2,0-3.6-1.6-3.6-3.6c0-2,1.6-3.6,3.6-3.6
		C498.8,12.2,500.5,13.8,500.5,15.8"/>
</g>
</svg>
