<svg xmlns="http://www.w3.org/2000/svg" width="163" height="37.308" viewBox="0 0 163 37.308"><defs><style>.a{fill:#1d1d1b;}</style></defs><g transform="translate(-825.11 -846.92)"><path class="a" d="M890.063,850.795a17.448,17.448,0,0,0-5.489-1c-4.843,0-8.933,2.906-8.933,9.435,0,6.242,3.516,9.077,8.216,9.292a13.764,13.764,0,0,0,3.372-.359v-6.5H882.17v-2.718h9.9v10.619a22.9,22.9,0,0,1-8.574,1.722c-8.036,0-13.418-4.915-13.418-12.054,0-7.319,5.489-12.3,13.812-12.3a22.864,22.864,0,0,1,7.14,1.148Z"></path><path class="a" d="M927.346,869.11a1.812,1.812,0,1,1-1.812-1.812,1.812,1.812,0,0,1,1.812,1.812"></path><path class="a" d="M906.148,847.237l-9.807,23.684h3.623l2.855-6.894h9.537l2.855,6.894H920.7l-9.807-23.684Zm-2.2,14.074,3.643-8.795,3.643,8.795Z"></path><path class="a" d="M973.558,847.243h0l-9.808,23.678h3.624l2.855-6.892h9.537l2.855,6.892h5.489L978.3,847.243Zm-2.2,14.068L975,852.516l3.643,8.795Z"></path><path class="a" d="M954.145,847.244h-1.78l-7.433,17.945L937.5,847.244h-6.529v23.678h3.623V851.694l7.964,19.228h3.623l7.964-19.228v19.239H959.1V847.244Z"></path><path class="a" d="M986.21,847.237a1.891,1.891,0,1,1-1.891,1.891,1.893,1.893,0,0,1,1.891-1.891m.005,3.5a1.61,1.61,0,1,0-1.535-1.608,1.54,1.54,0,0,0,1.535,1.608m-.728-2.718h.849c.508,0,.759.2.759.623a.565.565,0,0,1-.571.613l.629.98h-.382l-.619-.98h-.3v.98h-.362Zm.362.953h.429c.278,0,.456-.058.456-.346,0-.251-.225-.325-.456-.325h-.429Z"></path><rect width="0.688" height="4.802" transform="translate(870.08 878.226)"></rect><path d="M875.25,878.831h-1.493v-.605h3.674v.605h-1.493v4.2h-.688Z"></path><path d="M882.469,878.226h.722l2.03,4.8h-.75l-.488-1.211H881.63l-.489,1.211h-.722Zm.337.647-.956,2.38h1.913Z"></path><path d="M888.209,878.226h.688v4.2h2.009v.605h-2.7Z"></path><path d="M895.773,881.019l-1.878-2.793h.805l1.431,2.153,1.4-2.153h.8l-1.871,2.793v2.009h-.688Z"></path><rect class="a" width="0.688" height="7.203" transform="translate(905.147 877.025)"></rect><path class="a" d="M913.144,878.226H914.4c.983,0,1.8.344,1.8,1.438,0,1.066-.832,1.445-1.7,1.445h-.674v1.919h-.688Zm.688,2.277h.681a.864.864,0,0,0,.963-.846c0-.606-.633-.826-1.06-.826h-.584Z"></path><path class="a" d="M919.468,878.226h1.176c.95,0,1.865.151,1.865,1.3a1.119,1.119,0,0,1-.991,1.094v.014c.213.082.317.186.468.481l.908,1.913h-.784l-.737-1.665c-.213-.468-.44-.468-.8-.468h-.413v2.133h-.688Zm.688,2.064h.585c.653,0,1.039-.289,1.039-.75,0-.434-.331-.709-.964-.709h-.66Z"></path><path class="a" d="M928.276,878.143a2.49,2.49,0,1,1-2.312,2.484,2.265,2.265,0,0,1,2.312-2.484m0,4.362c1.107,0,1.582-.922,1.582-1.878,0-.977-.523-1.885-1.582-1.878s-1.583.9-1.583,1.878c0,.956.475,1.878,1.583,1.878"></path><path class="a" d="M934.022,878.226h2.553v.605H934.71v1.4h1.782v.606H934.71v2.188h-.688Z"></path><path class="a" d="M940.037,878.226h2.69v.605h-2v1.4h1.823v.606h-1.823v1.582h2v.605h-2.69Z"></path><path class="a" d="M948.508,878.948a2.126,2.126,0,0,0-.9-.2c-.385,0-.839.137-.839.64,0,.921,2.064.708,2.064,2.291,0,1.025-.791,1.431-1.755,1.431a3.224,3.224,0,0,1-.984-.2l.069-.64a2.9,2.9,0,0,0,1,.234.859.859,0,0,0,.942-.784c0-1.073-2.064-.778-2.064-2.271,0-.852.675-1.307,1.542-1.307a3.2,3.2,0,0,1,1.025.172Z"></path><path class="a" d="M954.446,878.948a2.122,2.122,0,0,0-.9-.2c-.386,0-.84.137-.84.64,0,.921,2.064.708,2.064,2.291,0,1.025-.791,1.431-1.754,1.431a3.224,3.224,0,0,1-.984-.2l.069-.64a2.9,2.9,0,0,0,1,.234.859.859,0,0,0,.942-.784c0-1.073-2.064-.778-2.064-2.271,0-.852.674-1.307,1.541-1.307a3.2,3.2,0,0,1,1.025.172Z"></path><rect class="a" width="0.688" height="4.802" transform="translate(958.204 878.226)"></rect><path class="a" d="M964.679,878.143a2.49,2.49,0,1,1-2.312,2.484,2.265,2.265,0,0,1,2.312-2.484m0,4.362c1.108,0,1.582-.922,1.582-1.878,0-.977-.522-1.885-1.582-1.878s-1.582.9-1.582,1.878c0,.956.474,1.878,1.582,1.878"></path><path class="a" d="M970.46,878.226h.936l2.119,3.867h.014v-3.867h.688v4.8h-.881l-2.174-3.949h-.014v3.949h-.688Z"></path><path class="a" d="M979.454,878.226h.722l2.03,4.8h-.75l-.489-1.211h-2.353l-.488,1.211H977.4Zm.337.647-.957,2.38h1.913Z"></path><path class="a" d="M985.393,878.226h.688v4.2h2.009v.605h-2.7Z"></path><path d="M858.544,869.174c1.667,4.024-3.167,9.849-10.8,13.009a27.932,27.932,0,0,1-2.927,1.028.127.127,0,0,0,.043.249,23.833,23.833,0,0,0,7.638-1.823c7.63-3.16,12.352-9.257,10.545-13.617s-9.455-5.332-17.085-2.172q-.347.144-.686.3a.127.127,0,0,0,.087.238c6.251-1.621,11.783-.585,13.182,2.792"></path><path d="M832.338,868.367c-2.639-6.372,4.737-15.479,16.475-20.342q1.128-.467,2.251-.858a.127.127,0,0,0-.062-.245,38.064,38.064,0,0,0-9.076,2.533c-11.739,4.862-19,14.242-16.224,20.949s14.547,8.2,26.285,3.342q.883-.366,1.731-.765a.127.127,0,0,0-.087-.237c-9.989,2.793-19.011,1.132-21.293-4.377"></path></g></svg>